<svg width="24" height="24" viewBox="0 0 24 24" fill="none" xmlns="http://www.w3.org/2000/svg">
<path d="M7.93967 2.45395C7.65847 2.73524 7.50049 3.1167 7.50049 3.51445C7.50049 3.9122 7.65847 4.29366 7.93967 4.57495L15.3647 12L7.93967 19.4249C7.66644 19.7079 7.51524 20.0868 7.51866 20.4801C7.52208 20.8733 7.67983 21.2496 7.95794 21.5277C8.23606 21.8058 8.61228 21.9635 9.00557 21.967C9.39887 21.9704 9.77777 21.8192 10.0607 21.5459L18.5462 13.0604C18.8274 12.7792 18.9854 12.3977 18.9854 12C18.9854 11.6022 18.8274 11.2207 18.5462 10.9395L10.0607 2.45395C9.77938 2.17274 9.39792 2.01477 9.00017 2.01477C8.60243 2.01477 8.22096 2.17274 7.93967 2.45395Z" fill="#878A93"/>
</svg>
