<svg width="34" height="34" viewBox="0 0 34 34" fill="none" xmlns="http://www.w3.org/2000/svg">
<path d="M18.4166 21.25C18.4166 21.6258 18.2673 21.9861 18.0017 22.2518C17.736 22.5175 17.3756 22.6667 16.9999 22.6667C16.6242 22.6667 16.2639 22.5175 15.9982 22.2518C15.7325 21.9861 15.5833 21.6258 15.5833 21.25C15.5833 20.8743 15.7325 20.514 15.9982 20.2483C16.2639 19.9826 16.6242 19.8334 16.9999 19.8334C17.3756 19.8334 17.736 19.9826 18.0017 20.2483C18.2673 20.514 18.4166 20.8743 18.4166 21.25Z" stroke="#033537" stroke-width="1.48065" stroke-linecap="round" stroke-linejoin="round"/>
<path d="M21.2499 12.75C23.9218 12.75 25.2563 12.75 26.0864 13.5802C26.9166 14.4103 26.9166 15.7448 26.9166 18.4167V24.0833C26.9166 26.7552 26.9166 28.0897 26.0864 28.9198C25.2563 29.75 23.9218 29.75 21.2499 29.75H12.7499C10.0781 29.75 8.74359 29.75 7.91342 28.9198C7.08325 28.0897 7.08325 26.7552 7.08325 24.0833V18.4167C7.08325 15.7448 7.08325 14.4103 7.91342 13.5802C8.74359 12.75 10.0781 12.75 12.7499 12.75M21.2499 12.75H12.7499M21.2499 12.75V7.08333C21.2499 6.33189 20.9514 5.61122 20.4201 5.07986C19.8887 4.54851 19.168 4.25 18.4166 4.25H15.5833C14.8318 4.25 14.1111 4.54851 13.5798 5.07986C13.0484 5.61122 12.7499 6.33189 12.7499 7.08333V12.75" stroke="#033537" stroke-width="1.48065" stroke-linecap="round" stroke-linejoin="round"/>
</svg>
