<svg width="40" height="40" viewBox="0 0 40 40" fill="none" xmlns="http://www.w3.org/2000/svg">
<g clip-path="url(#clip0_939_390)">
<path d="M20 24.4444C20.9296 24.4444 21.8383 24.1688 22.6112 23.6523C23.3841 23.1359 23.9865 22.4019 24.3422 21.543C24.698 20.6842 24.791 19.7392 24.6097 18.8275C24.4283 17.9158 23.9807 17.0783 23.3234 16.421C22.6661 15.7637 21.8286 15.3161 20.9169 15.1347C20.0052 14.9534 19.0602 15.0465 18.2014 15.4022C17.3426 15.7579 16.6085 16.3603 16.0921 17.1333C15.5756 17.9062 15.3 18.8149 15.3 19.7444C15.3 20.991 15.7952 22.1864 16.6766 23.0678C17.558 23.9493 18.7535 24.4444 20 24.4444ZM20 16.8222C20.578 16.8222 21.1429 16.9936 21.6235 17.3147C22.1041 17.6358 22.4786 18.0922 22.6998 18.6261C22.921 19.1601 22.9788 19.7477 22.8661 20.3145C22.7533 20.8814 22.475 21.4021 22.0663 21.8108C21.6576 22.2194 21.137 22.4978 20.5701 22.6105C20.0032 22.7233 19.4157 22.6654 18.8817 22.4442C18.3477 22.223 17.8914 21.8485 17.5703 21.3679C17.2492 20.8874 17.0778 20.3224 17.0778 19.7444C17.0778 18.9694 17.3857 18.2261 17.9337 17.6781C18.4817 17.1301 19.225 16.8222 20 16.8222Z" fill="black"/>
<path d="M24.4444 4.44439C24.4444 3.85502 24.2103 3.28979 23.7936 2.87304C23.3768 2.45629 22.8116 2.22217 22.2222 2.22217H17.7778C17.1884 2.22217 16.6232 2.45629 16.2064 2.87304C15.7897 3.28979 15.5556 3.85502 15.5556 4.44439V12.2222H24.4444V4.44439ZM22.2222 9.99995H17.7778V4.44439H22.2222V9.99995Z" fill="black"/>
<path d="M28.8889 33.3334V30.7778C28.8922 30.4817 28.7897 30.1941 28.6 29.9667C27.5217 28.7654 26.1923 27.8162 24.706 27.1863C23.2198 26.5565 21.6131 26.2615 20 26.3222C18.3843 26.2656 16.7761 26.5659 15.2896 27.2015C13.8032 27.8372 12.4751 28.7927 11.4 30C11.2111 30.2279 11.1088 30.5152 11.1111 30.8111V33.3334H12.8889V30.9667C13.8006 30.0085 14.907 29.2569 16.1336 28.7624C17.3603 28.2679 18.6787 28.042 20 28.1C21.3221 28.0435 22.641 28.2711 23.8677 28.7675C25.0944 29.2639 26.2004 30.0176 27.1111 30.9778V33.3334H28.8889Z" fill="black"/>
<path d="M31.1111 6.66675H26.6667V8.88897H31.1111V35.5556H8.88889V8.88897H13.3333V6.66675H8.88889C8.29952 6.66675 7.73429 6.90087 7.31754 7.31762C6.90079 7.73437 6.66666 8.2996 6.66666 8.88897V35.5556C6.66666 36.145 6.90079 36.7102 7.31754 37.127C7.73429 37.5437 8.29952 37.7779 8.88889 37.7779H31.1111C31.7005 37.7779 32.2657 37.5437 32.6825 37.127C33.0992 36.7102 33.3333 36.145 33.3333 35.5556V8.88897C33.3333 8.2996 33.0992 7.73437 32.6825 7.31762C32.2657 6.90087 31.7005 6.66675 31.1111 6.66675Z" fill="black"/>
</g>
<defs>
<clipPath id="clip0_939_390">
<rect width="40" height="40" fill="white"/>
</clipPath>
</defs>
</svg>
