<svg width="153" height="154" viewBox="0 0 153 154" fill="none" xmlns="http://www.w3.org/2000/svg">
<path d="M127.659 43.9291L95.5341 11.8047C94.6385 10.909 93.4293 10.4015 92.1605 10.4015H28.7476C26.1054 10.4015 23.9707 12.5362 23.9707 15.1784V139.377C23.9707 142.019 26.1054 144.154 28.7476 144.154H124.285C126.927 144.154 129.062 142.019 129.062 139.377V47.3177C129.062 46.0489 128.554 44.8248 127.659 43.9291ZM118.045 49.5121H89.9512V21.4181L118.045 49.5121ZM118.314 133.406H34.7187V21.1494H79.8003V53.3933C79.8003 55.0561 80.4609 56.6508 81.6367 57.8266C82.8124 59.0024 84.4071 59.6629 86.07 59.6629H118.314V133.406Z" fill="#A8A8A8"/>
</svg>
