<svg width="14" height="11" viewBox="0 0 14 11" fill="none" xmlns="http://www.w3.org/2000/svg">
<path d="M2.51063 0.0020842L11.9831 0.000375525C12.3571 -0.000233619 12.7236 0.105075 13.0402 0.304113C13.3568 0.503151 13.6105 0.787779 13.7721 1.12505C13.9612 1.52523 14.0341 1.97048 13.9824 2.41007C13.9308 2.84965 13.7567 3.26589 13.48 3.61135L8.74481 9.34971C8.55898 9.5642 8.32922 9.73624 8.07108 9.85417C7.81295 9.97209 7.53248 10.0331 7.24869 10.0332C6.96489 10.0333 6.6844 9.9723 6.42623 9.85446C6.16805 9.73663 5.93822 9.56467 5.75231 9.35025L1.01503 3.6136C0.738209 3.26824 0.563975 2.85206 0.512181 2.4125C0.460386 1.97293 0.533117 1.52765 0.722081 1.12741C0.883505 0.790075 1.13716 0.505355 1.45369 0.306203C1.77021 0.10705 2.13666 0.00160997 2.51063 0.0020842Z" fill="black"/>
</svg>
