<svg width="26" height="22" viewBox="0 0 26 22" fill="none" xmlns="http://www.w3.org/2000/svg">
<path d="M22.5839 12.4811L14.9491 19.7479C14.4429 20.2295 13.7564 20.5 13.0407 20.5C12.3249 20.5 11.6385 20.2295 11.1323 19.7479L3.49743 12.4824C2.8663 11.887 2.36496 11.1789 2.02219 10.3987C1.67942 9.61843 1.50196 8.78145 1.50002 7.93578C1.49807 7.0901 1.67167 6.25239 2.01085 5.47073C2.35003 4.68907 2.84811 3.97886 3.47649 3.38088C4.10487 2.78289 4.85118 2.30891 5.67258 1.98614C6.49397 1.66337 7.37427 1.49816 8.26294 1.50002C9.1516 1.50187 10.0311 1.67074 10.851 1.99693C11.6709 2.32312 12.4151 2.80021 13.0407 3.40081C14.3114 2.22161 16.0192 1.56633 17.7941 1.57692C19.569 1.5875 21.268 2.26309 22.5232 3.45735C23.7783 4.6516 24.4885 6.26835 24.4999 7.95736C24.5112 9.64638 23.8229 11.2717 22.5839 12.4811Z" stroke="#033537" stroke-width="2.35" stroke-linecap="round" stroke-linejoin="round"/>
</svg>
