<svg width="26" height="28" viewBox="0 0 26 28" fill="none" xmlns="http://www.w3.org/2000/svg">
<path d="M24.1111 8.62259L15.7778 1.53008C15.0139 0.86673 14.0249 0.5 13 0.5C11.9751 0.5 10.9862 0.86673 10.2223 1.53008L1.88901 8.62259C1.44786 9.00563 1.09582 9.47552 0.85634 10.001C0.616858 10.5264 0.495427 11.0954 0.500132 11.6699V23.4548C0.500132 24.5277 0.939116 25.5566 1.72051 26.3152C2.50191 27.0738 3.56171 27.5 4.66677 27.5H21.3333C22.4384 27.5 23.4982 27.0738 24.2796 26.3152C25.061 25.5566 25.5 24.5277 25.5 23.4548V11.6565C25.5027 11.0842 25.3803 10.5178 25.1409 9.99482C24.9015 9.47183 24.5505 9.00412 24.1111 8.62259ZM15.7778 24.8032H10.2223V18.0613C10.2223 17.7037 10.3686 17.3607 10.6291 17.1078C10.8895 16.855 11.2428 16.7129 11.6112 16.7129H14.3889C14.7573 16.7129 15.1105 16.855 15.371 17.1078C15.6315 17.3607 15.7778 17.7037 15.7778 18.0613V24.8032ZM22.7222 23.4548C22.7222 23.8125 22.5759 24.1554 22.3154 24.4083C22.0549 24.6612 21.7017 24.8032 21.3333 24.8032H18.5556V18.0613C18.5556 16.9885 18.1166 15.9595 17.3352 15.2009C16.5538 14.4423 15.494 14.0161 14.3889 14.0161H11.6112C10.5061 14.0161 9.4463 14.4423 8.66491 15.2009C7.88351 15.9595 7.44453 16.9885 7.44453 18.0613V24.8032H4.66677C4.29842 24.8032 3.94515 24.6612 3.68468 24.4083C3.42422 24.1554 3.27789 23.8125 3.27789 23.4548V11.6565C3.27814 11.465 3.32038 11.2758 3.4018 11.1014C3.48322 10.9271 3.60196 10.7715 3.75011 10.6452L12.0834 3.56614C12.3368 3.34997 12.6627 3.23075 13 3.23075C13.3374 3.23075 13.6632 3.34997 13.9167 3.56614L22.25 10.6452C22.3981 10.7715 22.5169 10.9271 22.5983 11.1014C22.6797 11.2758 22.7219 11.465 22.7222 11.6565V23.4548Z" fill="#033537"/>
</svg>
