<svg width="23" height="23" viewBox="0 0 23 23" fill="none" xmlns="http://www.w3.org/2000/svg">
<path d="M5.94583 2.57495C4.02382 2.6243 2.87877 2.80595 2.08576 3.48005C1 4.40405 1 5.8898 1 8.86235V15.6937C1 18.6673 1 20.153 2.08576 21.077C3.17028 22 4.91812 22 8.41133 22H14.5874C18.0819 22 19.8285 22 20.913 21.076C22 20.153 22 18.6673 22 15.6937V8.86235C22 5.89085 22 4.40405 20.913 3.48005C20.1212 2.80595 18.9749 2.6243 17.0529 2.57495" stroke="black" stroke-width="1.6875" stroke-linecap="round" stroke-linejoin="round"/>
<path d="M4.71045 9.4H9.65133M13.357 10.45C13.357 10.45 13.9746 10.45 14.5922 11.5C14.5922 11.5 16.5538 8.875 18.2979 8.35M4.71045 15.7H9.65133M13.357 16.75C13.357 16.75 13.9746 16.75 14.5922 17.8C14.5922 17.8 16.5538 15.175 18.2979 14.65M5.94073 2.8375C5.94073 1.8232 6.90914 1 8.10237 1H14.8961C15.4694 1 16.0192 1.19359 16.4246 1.53819C16.83 1.88279 17.0577 2.35016 17.0577 2.8375C17.0577 3.32484 16.83 3.79221 16.4246 4.13681C16.0192 4.48141 15.4694 4.675 14.8961 4.675H8.10237C7.52907 4.675 6.97924 4.48141 6.57386 4.13681C6.16847 3.79221 5.94073 3.32484 5.94073 2.8375Z" stroke="black" stroke-width="1.6875" stroke-linecap="round" stroke-linejoin="round"/>
</svg>
