<svg width="61" height="61" viewBox="0 0 61 61" fill="none" xmlns="http://www.w3.org/2000/svg">
<path fill-rule="evenodd" clip-rule="evenodd" d="M22.875 15.8855C21.9571 15.8855 21.0482 16.0663 20.2002 16.4175C19.3522 16.7688 18.5817 17.2837 17.9326 17.9327C17.2836 18.5817 16.7687 19.3523 16.4175 20.2003C16.0662 21.0483 15.8854 21.9572 15.8854 22.8751C15.8854 23.793 16.0662 24.7019 16.4175 25.5499C16.7687 26.3979 17.2836 27.1684 17.9326 27.8175C18.5817 28.4665 19.3522 28.9814 20.2002 29.3326C21.0482 29.6839 21.9571 29.8647 22.875 29.8647C24.7288 29.8647 26.5066 29.1283 27.8174 27.8175C29.1282 26.5067 29.8646 24.7288 29.8646 22.8751C29.8646 21.0213 29.1282 19.2435 27.8174 17.9327C26.5066 16.6219 24.7288 15.8855 22.875 15.8855ZM19.6979 22.8751C19.6979 22.0325 20.0326 21.2244 20.6285 20.6285C21.2243 20.0327 22.0324 19.698 22.875 19.698C23.7176 19.698 24.5257 20.0327 25.1215 20.6285C25.7174 21.2244 26.0521 22.0325 26.0521 22.8751C26.0521 23.7177 25.7174 24.5258 25.1215 25.1216C24.5257 25.7174 23.7176 26.0522 22.875 26.0522C22.0324 26.0522 21.2243 25.7174 20.6285 25.1216C20.0326 24.5258 19.6979 23.7177 19.6979 22.8751ZM22.875 31.1355C19.8352 31.1355 16.991 31.7455 14.8332 32.8257C12.7922 33.8475 10.8021 35.6114 10.8021 38.1251V38.2852C10.797 39.5815 10.7919 41.7673 12.8608 43.2643C13.8216 43.9582 15.0899 44.403 16.6606 44.6851C18.2441 44.9698 20.2749 45.1147 22.875 45.1147C25.4751 45.1147 27.5059 44.9698 29.0894 44.6851C30.6601 44.403 31.9284 43.9582 32.8892 43.2618C34.9581 41.7647 34.953 39.5815 34.9479 38.2827V38.1251C34.9479 35.6088 32.9578 33.8475 30.9168 32.8257C28.759 31.748 25.9148 31.1355 22.875 31.1355ZM14.6146 38.1251C14.6146 37.8328 14.9018 37.055 16.5386 36.2366C18.0636 35.4741 20.3003 34.948 22.875 34.948C25.4497 34.948 27.6889 35.4741 29.2114 36.2366C30.8482 37.055 31.1354 37.8328 31.1354 38.1251C31.1354 39.6602 31.0363 39.8966 30.6525 40.1762C30.3424 40.3999 29.7045 40.6998 28.4158 40.9336C27.1399 41.1624 25.3582 41.3022 22.875 41.3022C20.3918 41.3022 18.6101 41.1624 17.3342 40.9336C16.0455 40.6998 15.4076 40.3999 15.0975 40.1762C14.7112 39.8966 14.6146 39.6602 14.6146 38.1251Z" fill="black"/>
<path d="M48.2917 32.4063C48.7972 32.4063 49.2821 32.2054 49.6396 31.8479C49.9971 31.4904 50.1979 31.0056 50.1979 30.5C50.1979 29.9944 49.9971 29.5096 49.6396 29.1521C49.2821 28.7946 48.7972 28.5938 48.2917 28.5938H38.125C37.6194 28.5938 37.1346 28.7946 36.7771 29.1521C36.4196 29.5096 36.2187 29.9944 36.2187 30.5C36.2187 31.0056 36.4196 31.4904 36.7771 31.8479C37.1346 32.2054 37.6194 32.4063 38.125 32.4063H48.2917ZM50.1979 22.875C50.1979 23.3806 49.9971 23.8654 49.6396 24.2229C49.2821 24.5804 48.7972 24.7813 48.2917 24.7813H35.5833C35.0778 24.7813 34.5929 24.5804 34.2354 24.2229C33.8779 23.8654 33.6771 23.3806 33.6771 22.875C33.6771 22.3694 33.8779 21.8846 34.2354 21.5271C34.5929 21.1696 35.0778 20.9688 35.5833 20.9688H48.2917C48.7972 20.9688 49.2821 21.1696 49.6396 21.5271C49.9971 21.8846 50.1979 22.3694 50.1979 22.875ZM48.2917 40.0313C48.7972 40.0313 49.2821 39.8304 49.6396 39.4729C49.9971 39.1154 50.1979 38.6306 50.1979 38.125C50.1979 37.6194 49.9971 37.1346 49.6396 36.7771C49.2821 36.4196 48.7972 36.2188 48.2917 36.2188H40.6667C40.1611 36.2188 39.6762 36.4196 39.3187 36.7771C38.9613 37.1346 38.7604 37.6194 38.7604 38.125C38.7604 38.6306 38.9613 39.1154 39.3187 39.4729C39.6762 39.8304 40.1611 40.0313 40.6667 40.0313H48.2917Z" fill="black"/>
<path fill-rule="evenodd" clip-rule="evenodd" d="M25.2743 8.2605H35.7257C40.3972 8.2605 44.0979 8.2605 46.9929 8.64937C49.9717 9.05096 52.3837 9.89479 54.2875 11.796C56.1886 13.6997 57.0325 16.1117 57.434 19.0905C57.8229 21.988 57.8229 25.6862 57.8229 30.3577V30.6424C57.8229 35.314 57.8229 39.0147 57.434 41.9096C57.0325 44.8885 56.1886 47.3005 54.2875 49.2042C52.3837 51.1054 49.9717 51.9492 46.9929 52.3508C44.0954 52.7397 40.3972 52.7397 35.7257 52.7397H25.2769C20.6053 52.7397 16.9046 52.7397 14.0097 52.3508C11.0308 51.9492 8.61879 51.1054 6.71508 49.2042C4.81392 47.3005 3.97008 44.8885 3.5685 41.9096C3.17963 39.0121 3.17963 35.314 3.17963 30.6424V30.3577C3.17963 25.6862 3.17963 21.9855 3.5685 19.0905C3.97008 16.1117 4.81392 13.6997 6.71508 11.796C8.61879 9.89479 11.0308 9.05096 14.0097 8.64937C16.9072 8.2605 20.6027 8.2605 25.2743 8.2605ZM14.5129 12.4288C11.956 12.772 10.4818 13.4175 9.40417 14.4927C8.33158 15.5678 7.686 17.042 7.34288 19.5989C6.99213 22.2117 6.98704 25.6531 6.98704 30.5001C6.98704 35.347 6.99213 38.791 7.34288 41.4038C7.686 43.9582 8.33158 45.4324 9.40671 46.5075C10.4818 47.5826 11.956 48.2282 14.5129 48.5713C17.1258 48.9221 20.5672 48.9272 25.4141 48.9272H35.5808C40.4277 48.9272 43.8717 48.9221 46.4845 48.5713C49.0389 48.2282 50.5131 47.5826 51.5882 46.5075C52.6633 45.4324 53.3089 43.9582 53.652 41.4013C54.0028 38.7885 54.0079 35.347 54.0079 30.5001C54.0079 25.6531 54.0028 22.2117 53.652 19.5963C53.3089 17.042 52.6633 15.5678 51.5882 14.4927C50.5131 13.4175 49.0389 12.772 46.482 12.4288C43.8717 12.0781 40.4277 12.073 35.5808 12.073H25.4141C20.5672 12.073 17.1283 12.0781 14.5129 12.4288Z" fill="black"/>
</svg>
