<svg width="36" height="34" viewBox="0 0 36 34" fill="none" xmlns="http://www.w3.org/2000/svg">
<path d="M18.03 28.7678C14.535 28.7678 11.04 28.2493 7.72505 27.2124C6.46505 26.806 5.50505 25.9793 5.08505 24.9003C4.65005 23.8213 4.80005 22.6303 5.49005 21.5653L7.21505 18.8889C7.57505 18.3284 7.90505 17.2074 7.90505 16.5488V12.4992C7.90505 7.28647 12.45 3.04065 18.03 3.04065C23.61 3.04065 28.155 7.28647 28.155 12.4992V16.5488C28.155 17.1934 28.485 18.3284 28.845 18.9029L30.555 21.5653C31.2 22.5742 31.32 23.7933 30.885 24.9003C30.45 26.0073 29.505 26.8481 28.32 27.2124C25.02 28.2493 21.525 28.7678 18.03 28.7678ZM18.03 5.14254C13.695 5.14254 10.155 8.4355 10.155 12.4992V16.5488C10.155 17.5717 9.70505 19.0851 9.15005 19.9679L7.42505 22.6443C7.09505 23.1627 7.00505 23.7092 7.20005 24.1717C7.38005 24.6481 7.83005 25.0124 8.44505 25.2086C14.715 27.1703 21.36 27.1703 27.63 25.2086C28.17 25.0404 28.59 24.6621 28.785 24.1576C28.98 23.6532 28.935 23.1067 28.635 22.6443L26.91 19.9679C26.34 19.0571 25.905 17.5577 25.905 16.5348V12.4992C25.905 8.4355 22.38 5.14254 18.03 5.14254Z" fill="#28895E"/>
<path d="M20.8202 5.52104C20.7152 5.52104 20.6102 5.50703 20.5052 5.479C20.0702 5.3669 19.6502 5.28283 19.2452 5.22678C17.9702 5.07264 16.7402 5.15671 15.5852 5.479C15.1652 5.60512 14.7152 5.479 14.4302 5.18474C14.1452 4.89048 14.0552 4.4701 14.2202 4.09176C14.8352 2.62043 16.3352 1.65356 18.0452 1.65356C19.7552 1.65356 21.2552 2.60642 21.8702 4.09176C22.0202 4.4701 21.9452 4.89048 21.6602 5.18474C21.4352 5.40894 21.1202 5.52104 20.8202 5.52104Z" fill="#28895E"/>
<path d="M18.03 31.9627C16.545 31.9627 15.105 31.4022 14.055 30.4213C13.005 29.4405 12.405 28.0953 12.405 26.708H14.655C14.655 27.5348 15.015 28.3475 15.645 28.936C16.275 29.5245 17.145 29.8608 18.03 29.8608C19.89 29.8608 21.405 28.4456 21.405 26.708H23.655C23.655 29.6086 21.135 31.9627 18.03 31.9627Z" fill="#28895E"/>
</svg>
