<svg width="30" height="32" viewBox="0 0 30 32" fill="none" xmlns="http://www.w3.org/2000/svg">
<path d="M15.8331 31.444H13.854C13.1246 31.4495 12.4189 31.1705 11.8713 30.6602C11.3238 30.1498 10.9728 29.4438 10.8853 28.6769C10.2212 28.4546 9.57575 28.1741 8.95562 27.8384C8.38142 28.3193 7.65972 28.5585 6.92912 28.5102C6.19853 28.4618 5.51057 28.1292 4.99737 27.5764L3.65156 26.0985C3.12957 25.5549 2.81559 24.8262 2.76993 24.0524C2.72427 23.2786 2.95014 22.5142 3.40417 21.906C3.0897 21.266 2.82494 20.6 2.61252 19.9145C1.88843 19.8219 1.22189 19.4501 0.740054 18.8701C0.258218 18.2902 -0.00519062 17.5427 7.75197e-05 16.7701V14.6739C-0.00519062 13.9014 0.258218 13.1539 0.740054 12.5739C1.22189 11.994 1.88843 11.6222 2.61252 11.5295C2.8224 10.8261 3.0872 10.1425 3.40417 9.48565C2.95014 8.87747 2.72427 8.11305 2.76993 7.33922C2.81559 6.56539 3.12957 5.83671 3.65156 5.29313L5.04685 3.86768C5.56005 3.31479 6.24801 2.98223 6.9786 2.93386C7.70919 2.8855 8.4309 3.12474 9.0051 3.60565C9.6093 3.27256 10.2381 2.99213 10.8853 2.76714C10.9728 2.0002 11.3238 1.29421 11.8713 0.783853C12.4189 0.2735 13.1246 -0.00549782 13.854 8.21076e-05H15.8331C16.5624 -0.00549782 17.2682 0.2735 17.8157 0.783853C18.3633 1.29421 18.7143 2.0002 18.8018 2.76714C19.4658 2.98944 20.1113 3.26991 20.7314 3.60565C21.3056 3.12474 22.0273 2.8855 22.7579 2.93386C23.4885 2.98223 24.1765 3.31479 24.6897 3.86768L26.0355 5.34554C26.5575 5.88911 26.8714 6.61779 26.9171 7.39162C26.9628 8.16546 26.7369 8.92987 26.2829 9.53806C26.5998 10.1949 26.8646 10.8785 27.0745 11.5819C27.7902 11.6735 28.4499 12.0378 28.9306 12.6067C29.4113 13.1756 29.6802 13.9104 29.687 14.6739V16.7701C29.6922 17.5427 29.4288 18.2902 28.947 18.8701C28.4652 19.4501 27.7986 19.8219 27.0745 19.9145C26.8646 20.6179 26.5998 21.3016 26.2829 21.9584C26.7369 22.5666 26.9628 23.331 26.9171 24.1048C26.8714 24.8787 26.5575 25.6073 26.0355 26.1509L24.6402 27.5764C24.127 28.1292 23.439 28.4618 22.7084 28.5102C21.9778 28.5585 21.2561 28.3193 20.6819 27.8384C20.0618 28.1741 19.4164 28.4546 18.7523 28.6769C18.6658 29.4349 18.3219 30.1337 17.7848 30.6428C17.2476 31.152 16.5539 31.4367 15.8331 31.444ZM8.81708 25.5011C8.9951 25.4978 9.17026 25.5487 9.32176 25.6478C10.1967 26.1929 11.1393 26.6056 12.1222 26.8741C12.3399 26.9335 12.5321 27.0697 12.667 27.2602C12.8019 27.4507 12.8715 27.6842 12.8644 27.9222V28.2996C12.8644 28.5776 12.9687 28.8441 13.1542 29.0407C13.3398 29.2373 13.5915 29.3477 13.854 29.3477H15.8331C16.0955 29.3477 16.3472 29.2373 16.5328 29.0407C16.7184 28.8441 16.8226 28.5776 16.8226 28.2996V27.8908C16.8155 27.6528 16.8852 27.4193 17.0201 27.2288C17.155 27.0383 17.3471 26.9021 17.5648 26.8427C18.5477 26.5742 19.4903 26.1614 20.3653 25.6164C20.5533 25.4991 20.7727 25.4509 20.9892 25.4793C21.2058 25.5078 21.4074 25.6112 21.5627 25.7736L21.8397 26.0671C21.9317 26.1653 22.0412 26.2433 22.1618 26.2965C22.2823 26.3497 22.4117 26.3771 22.5423 26.3771C22.673 26.3771 22.8023 26.3497 22.9229 26.2965C23.0435 26.2433 23.1529 26.1653 23.2449 26.0671L24.6402 24.5892C24.7329 24.4918 24.8066 24.3758 24.8568 24.2481C24.907 24.1204 24.9329 23.9834 24.9329 23.845C24.9329 23.7067 24.907 23.5697 24.8568 23.4419C24.8066 23.3142 24.7329 23.1983 24.6402 23.1009L24.3631 22.8074C24.2098 22.6429 24.1122 22.4294 24.0853 22.2C24.0585 21.9706 24.1039 21.7383 24.2147 21.5391C24.7293 20.6124 25.119 19.614 25.3725 18.5729C25.4286 18.3423 25.5571 18.1388 25.737 17.9959C25.9169 17.8531 26.1373 17.7793 26.362 17.7868H26.7183C26.9807 17.7868 27.2324 17.6764 27.418 17.4798C27.6036 17.2833 27.7078 17.0167 27.7078 16.7387V14.6739C27.7078 14.3959 27.6036 14.1293 27.418 13.9328C27.2324 13.7362 26.9807 13.6258 26.7183 13.6258H26.3323C26.1076 13.6333 25.8872 13.5595 25.7073 13.4167C25.5274 13.2738 25.3989 13.0703 25.3428 12.8397C25.0893 11.7986 24.6996 10.8002 24.185 9.87346C24.0743 9.67431 24.0288 9.44198 24.0556 9.21261C24.0825 8.98324 24.1801 8.7697 24.3334 8.60522L24.6105 8.31175C24.7033 8.21431 24.7769 8.09839 24.8271 7.97066C24.8774 7.84294 24.9032 7.70594 24.9032 7.56757C24.9032 7.42921 24.8774 7.29221 24.8271 7.16449C24.7769 7.03676 24.7033 6.92084 24.6105 6.8234L23.2449 5.34554C23.1529 5.2473 23.0435 5.16933 22.9229 5.11611C22.8023 5.0629 22.673 5.03551 22.5423 5.03551C22.4117 5.03551 22.2823 5.0629 22.1618 5.11611C22.0412 5.16933 21.9317 5.2473 21.8397 5.34554L21.5627 5.63902C21.4074 5.80139 21.2058 5.90483 20.9892 5.93327C20.7727 5.9617 20.5533 5.91353 20.3653 5.79624C19.4903 5.25116 18.5477 4.83839 17.5648 4.56993C17.3471 4.51051 17.155 4.37433 17.0201 4.18382C16.8852 3.99331 16.8155 3.75982 16.8226 3.5218V3.14447C16.8226 2.86649 16.7184 2.59989 16.5328 2.40333C16.3472 2.20677 16.0955 2.09634 15.8331 2.09634H13.854C13.5915 2.09634 13.3398 2.20677 13.1542 2.40333C12.9687 2.59989 12.8644 2.86649 12.8644 3.14447V3.55324C12.8715 3.79126 12.8019 4.02475 12.667 4.21526C12.5321 4.40578 12.3399 4.54195 12.1222 4.60137C11.1393 4.86984 10.1967 5.28261 9.32176 5.82768C9.13374 5.94497 8.91439 5.99315 8.69784 5.96471C8.48129 5.93628 8.27968 5.83283 8.12439 5.67046L7.84731 5.34554C7.75532 5.2473 7.64587 5.16933 7.52528 5.11611C7.4047 5.0629 7.27536 5.03551 7.14472 5.03551C7.01409 5.03551 6.88475 5.0629 6.76416 5.11611C6.64357 5.16933 6.53412 5.2473 6.44213 5.34554L5.04685 6.8234C4.9541 6.92084 4.88048 7.03676 4.83024 7.16449C4.78 7.29221 4.75414 7.42921 4.75414 7.56757C4.75414 7.70594 4.78 7.84294 4.83024 7.97066C4.88048 8.09839 4.9541 8.21431 5.04685 8.31175L5.32393 8.60522C5.47722 8.7697 5.57489 8.98324 5.60174 9.21261C5.62858 9.44198 5.5831 9.67431 5.47236 9.87346C4.95774 10.8002 4.56804 11.7986 4.31457 12.8397C4.25848 13.0703 4.12991 13.2738 3.95004 13.4167C3.77017 13.5595 3.54973 13.6333 3.32501 13.6258H2.96877C2.70632 13.6258 2.45462 13.7362 2.26904 13.9328C2.08346 14.1293 1.9792 14.3959 1.9792 14.6739V16.7701C1.9792 17.0481 2.08346 17.3147 2.26904 17.5113C2.45462 17.7079 2.70632 17.8183 2.96877 17.8183H3.3547C3.57942 17.8107 3.79986 17.8845 3.97973 18.0274C4.1596 18.1703 4.28816 18.3738 4.34426 18.6044C4.59773 19.6455 4.98743 20.6439 5.50205 21.5706C5.61278 21.7697 5.65827 22.0021 5.63142 22.2314C5.60458 22.4608 5.50691 22.6743 5.35361 22.8388L5.07654 23.1323C4.98378 23.2297 4.91017 23.3457 4.85993 23.4734C4.80969 23.6011 4.78382 23.7381 4.78382 23.8765C4.78382 24.0148 4.80969 24.1518 4.85993 24.2796C4.91017 24.4073 4.98378 24.5232 5.07654 24.6206L6.44213 26.0985C6.53412 26.1967 6.64357 26.2747 6.76416 26.3279C6.88475 26.3811 7.01409 26.4085 7.14472 26.4085C7.27536 26.4085 7.4047 26.3811 7.52528 26.3279C7.64587 26.2747 7.75532 26.1967 7.84731 26.0985L8.12439 25.805C8.30871 25.6114 8.55748 25.5022 8.81708 25.5011Z" fill="#28895E"/>
<path d="M14.8434 23.0589C13.4734 23.0589 12.1342 22.6286 10.995 21.8224C9.85592 21.0162 8.96807 19.8703 8.44379 18.5297C7.91951 17.189 7.78233 15.7138 8.04961 14.2906C8.31688 12.8674 8.97661 11.5601 9.94536 10.534C10.9141 9.50792 12.1484 8.80915 13.4921 8.52605C14.8358 8.24295 16.2285 8.38825 17.4943 8.94356C18.76 9.49888 19.8418 10.4393 20.603 11.6458C21.3641 12.8524 21.7704 14.2709 21.7704 15.722C21.7704 17.6678 21.0406 19.534 19.7415 20.91C18.4425 22.2859 16.6806 23.0589 14.8434 23.0589ZM14.8434 10.4813C13.8649 10.4813 12.9083 10.7887 12.0946 11.3645C11.2809 11.9404 10.6468 12.7589 10.2723 13.7165C9.89777 14.6741 9.79979 15.7278 9.9907 16.7444C10.1816 17.761 10.6528 18.6948 11.3448 19.4277C12.0368 20.1606 12.9184 20.6597 13.8782 20.8619C14.838 21.0641 15.8328 20.9604 16.7369 20.5637C17.641 20.1671 18.4137 19.4953 18.9574 18.6335C19.5011 17.7717 19.7913 16.7585 19.7913 15.722C19.7913 14.3321 19.27 12.9991 18.3421 12.0163C17.4142 11.0335 16.1557 10.4813 14.8434 10.4813Z" fill="#28A265"/>
</svg>
