<svg width="50" height="50" viewBox="0 0 50 50" fill="none" xmlns="http://www.w3.org/2000/svg">
<g clip-path="url(#clip0_212_568)">
<path fill-rule="evenodd" clip-rule="evenodd" d="M23.8491 15.9449C23.993 15.8006 24.164 15.6862 24.3522 15.6081C24.5404 15.53 24.7422 15.4898 24.946 15.4898C25.1498 15.4898 25.3515 15.53 25.5398 15.6081C25.728 15.6862 25.8989 15.8006 26.0429 15.9449L32.2399 22.1419C32.3839 22.286 32.4982 22.457 32.5761 22.6452C32.6541 22.8334 32.6942 23.0351 32.6942 23.2388C32.6942 23.4425 32.6541 23.6442 32.5761 23.8324C32.4982 24.0206 32.3839 24.1916 32.2399 24.3357C32.0958 24.4797 31.9248 24.594 31.7366 24.6719C31.5484 24.7499 31.3467 24.79 31.143 24.79C30.9393 24.79 30.7376 24.7499 30.5494 24.6719C30.3612 24.594 30.1902 24.4797 30.0461 24.3357L26.4952 20.7817V32.5343C26.4952 32.9452 26.332 33.3393 26.0415 33.6298C25.7509 33.9204 25.3569 34.0836 24.946 34.0836C24.5351 34.0836 24.141 33.9204 23.8505 33.6298C23.56 33.3393 23.3967 32.9452 23.3967 32.5343V20.7817L19.8458 24.3357C19.5549 24.6266 19.1604 24.79 18.749 24.79C18.3376 24.79 17.943 24.6266 17.6521 24.3357C17.3612 24.0448 17.1978 23.6502 17.1978 23.2388C17.1978 22.8274 17.3612 22.4328 17.6521 22.1419L23.8491 15.9449Z" fill="#023336"/>
<path d="M13.8102 10.3552C16.9071 7.68471 20.857 6.20983 24.9463 6.19701C33.2812 6.19701 40.2002 12.394 40.9532 20.3851C45.886 21.0822 49.7343 25.2125 49.7343 30.2817C49.7343 35.8466 45.0928 40.2806 39.469 40.2806H11.8737C5.45045 40.2806 0.158203 35.2176 0.158203 28.8719C0.158203 23.4092 4.08091 18.8854 9.27401 17.7389C9.7171 15.0649 11.4368 12.4002 13.8102 10.3552ZM15.8336 12.7008C13.488 14.7241 12.261 17.1626 12.261 19.0713V20.4594L10.8821 20.6113C6.55352 21.0853 3.25671 24.6393 3.25671 28.8719C3.25671 33.4174 7.06787 37.1821 11.8737 37.1821H39.469C43.4753 37.1821 46.6358 34.0464 46.6358 30.2817C46.6358 26.5139 43.4753 23.3782 39.469 23.3782H37.9197V21.829C37.9228 14.9503 32.1596 9.29551 24.9463 9.29551C21.5995 9.30888 18.3676 10.5177 15.8336 12.7039V12.7008Z" fill="#023336"/>
</g>
<defs>
<clipPath id="clip0_212_568">
<rect width="49.5761" height="49.5761" fill="white" transform="translate(0.158203)"/>
</clipPath>
</defs>
</svg>
