<svg width="21" height="21" viewBox="0 0 21 21" fill="none" xmlns="http://www.w3.org/2000/svg">
<path d="M10.5062 10.5109C13.3669 10.5109 15.699 8.1074 15.699 5.18191C15.699 2.27915 13.3911 0 10.5062 0C7.65716 0 5.31334 2.32463 5.31334 5.20464C5.32513 8.11853 7.65716 10.5109 10.5062 10.5109ZM10.5062 8.79874C8.75111 8.79874 7.2484 7.2119 7.2484 5.20416C7.2484 3.23174 8.72701 1.71214 10.5062 1.71214C12.3089 1.71214 13.7634 3.209 13.7634 5.18191C13.7634 7.18868 12.2848 8.79874 10.5062 8.79874ZM2.95721 21H18.0551C20.0502 21 21 20.4325 21 19.1858C21 16.2143 17.0329 11.9173 10.5062 11.9173C3.97885 11.9173 0 16.2148 0 19.1853C0 20.4325 0.949836 21 2.95721 21ZM2.38023 19.2869C2.06738 19.2869 1.93557 19.2075 1.93557 18.9695C1.93557 17.1098 4.98869 13.6284 10.5056 13.6284C16.0236 13.6284 19.0644 17.1098 19.0644 18.9695C19.0644 19.2075 18.9444 19.2869 18.6321 19.2869H2.38023Z" fill="black"/>
</svg>
