<svg width="28" height="28" viewBox="0 0 28 28" fill="none" xmlns="http://www.w3.org/2000/svg">
<path d="M14.0079 14.014C17.6861 14.014 20.6844 10.9238 20.6844 7.16245C20.6844 3.43033 17.7171 0.5 14.0079 0.5C10.3449 0.5 7.33144 3.4888 7.33144 7.19169C7.3466 10.9381 10.3449 14.014 14.0079 14.014ZM14.0079 11.8127C11.7514 11.8127 9.81937 9.77245 9.81937 7.19106C9.81937 4.65509 11.7204 2.70133 14.0079 2.70133C16.3257 2.70133 18.1958 4.62585 18.1958 7.16245C18.1958 9.74259 16.2947 11.8127 14.0079 11.8127ZM4.30213 27.5H23.7137C26.2788 27.5 27.5 26.7704 27.5 25.1674C27.5 21.347 22.3995 15.8222 14.0079 15.8222C5.61566 15.8222 0.5 21.3476 0.5 25.1668C0.5 26.7704 1.72122 27.5 4.30213 27.5ZM3.5603 25.2974C3.15806 25.2974 2.98859 25.1954 2.98859 24.8894C2.98859 22.4983 6.91403 18.0223 14.0073 18.0223C21.1018 18.0223 25.0114 22.4983 25.0114 24.8894C25.0114 25.1954 24.8571 25.2974 24.4555 25.2974H3.5603Z" fill="#033537"/>
</svg>
