<svg width="20" height="21" viewBox="0 0 20 21" fill="none" xmlns="http://www.w3.org/2000/svg">
<circle cx="10" cy="10.5" r="10" fill="#E60C0F"/>
<path d="M7.13103 6.64336L9.91349 9.42582L12.6815 6.65778C12.7427 6.5927 12.8163 6.54063 12.8981 6.50471C12.9798 6.46879 13.068 6.44975 13.1573 6.44873C13.3485 6.44873 13.5318 6.52468 13.667 6.65986C13.8022 6.79505 13.8781 6.9784 13.8781 7.16957C13.8798 7.25795 13.8634 7.34574 13.83 7.42755C13.7965 7.50936 13.7466 7.58347 13.6835 7.64533L10.8794 10.4134L13.6835 13.2175C13.8023 13.3337 13.872 13.4911 13.8781 13.6572C13.8781 13.8484 13.8022 14.0317 13.667 14.1669C13.5318 14.3021 13.3485 14.378 13.1573 14.378C13.0654 14.3818 12.9738 14.3665 12.8881 14.333C12.8025 14.2995 12.7248 14.2485 12.6599 14.1834L9.91349 11.4009L7.13824 14.1762C7.07733 14.2391 7.00457 14.2893 6.92415 14.324C6.84373 14.3586 6.75725 14.377 6.66969 14.378C6.47851 14.378 6.29516 14.3021 6.15998 14.1669C6.02479 14.0317 5.94885 13.8484 5.94885 13.6572C5.94717 13.5688 5.96356 13.481 5.99703 13.3992C6.0305 13.3174 6.08033 13.2433 6.14348 13.1814L8.94756 10.4134L6.14348 7.60929C6.02467 7.49306 5.955 7.33567 5.94885 7.16957C5.94885 6.9784 6.02479 6.79505 6.15998 6.65986C6.29516 6.52468 6.47851 6.44873 6.66969 6.44873C6.84269 6.45089 7.00849 6.52081 7.13103 6.64336Z" fill="white"/>
</svg>
