<svg width="46" height="46" viewBox="0 0 46 46" fill="none" xmlns="http://www.w3.org/2000/svg">
<g clip-path="url(#clip0_310_86)">
<path d="M0.854167 45.1458V0.854167H45.1458V45.1458H0.854167Z" stroke="#FFFFFE" stroke-width="1.70833"/>
<path d="M21.0832 23.0002C23.7295 23.0002 25.8748 20.8549 25.8748 18.2085C25.8748 15.5622 23.7295 13.4169 21.0832 13.4169C18.4368 13.4169 16.2915 15.5622 16.2915 18.2085C16.2915 20.8549 18.4368 23.0002 21.0832 23.0002Z" stroke="#033537" stroke-width="1.64" stroke-linecap="round" stroke-linejoin="round"/>
<path d="M17.2498 26.8331H24.9165C25.9332 26.8331 26.9082 27.237 27.6271 27.9559C28.346 28.6748 28.7498 29.6498 28.7498 30.6665V32.5831H13.4165V30.6665C13.4165 29.6498 13.8204 28.6748 14.5393 27.9559C15.2582 27.237 16.2332 26.8331 17.2498 26.8331Z" stroke="#033537" stroke-width="1.64" stroke-linecap="round" stroke-linejoin="round"/>
<path d="M29.8811 20.297L35.2861 25.702" stroke="#033537" stroke-width="1.70833" stroke-linecap="round" stroke-linejoin="round"/>
<path d="M35.2861 20.297L29.8811 25.702" stroke="#033537" stroke-width="1.64" stroke-linecap="round" stroke-linejoin="round"/>
</g>
<defs>
<clipPath id="clip0_310_86">
<rect width="46" height="46" fill="white"/>
</clipPath>
</defs>
</svg>
