<svg width="30" height="30" viewBox="0 0 30 30" fill="none" xmlns="http://www.w3.org/2000/svg">
<path d="M25.3125 11.2499C25.3133 9.51211 24.875 7.80224 24.0381 6.27915C23.2013 4.75607 21.9931 3.46916 20.5259 2.53796C19.0586 1.60675 17.3797 1.06145 15.6453 0.952707C13.9109 0.843962 12.1771 1.1753 10.605 1.91593C9.03287 2.65657 7.67342 3.7825 6.6529 5.18913C5.63238 6.59577 4.98388 8.23749 4.76765 9.96182C4.55141 11.6862 4.77444 13.4372 5.41603 15.0522C6.05762 16.6673 7.09695 18.094 8.4375 19.1999V29.4281L15 27.2437L21.5625 29.4281V19.1999C22.7347 18.2329 23.6787 17.0188 24.327 15.6445C24.9752 14.2702 25.3118 12.7695 25.3125 11.2499ZM6.5625 11.2499C6.5625 9.58117 7.05735 7.94986 7.98448 6.56232C8.9116 5.17478 10.2294 4.09333 11.7711 3.45471C13.3129 2.8161 15.0094 2.64901 16.6461 2.97457C18.2828 3.30013 19.7862 4.10373 20.9662 5.28373C22.1462 6.46374 22.9498 7.96716 23.2754 9.60387C23.6009 11.2406 23.4339 12.9371 22.7952 14.4788C22.1566 16.0206 21.0752 17.3383 19.6876 18.2655C18.3001 19.1926 16.6688 19.6874 15 19.6874C12.7622 19.6874 10.6161 18.7985 9.03379 17.2162C7.45145 15.6338 6.5625 13.4877 6.5625 11.2499ZM19.6875 26.8218L15 25.2562L10.3125 26.8218V20.4281C11.7618 21.1762 13.369 21.5666 15 21.5666C16.631 21.5666 18.2382 21.1762 19.6875 20.4281V26.8218Z" fill="#033537"/>
<path d="M11.0906 15.4219L12.6562 16.4531L15 12.9375L17.3437 16.4625L18.9093 15.4219L16.4624 11.7469L19.9874 10.575L19.3875 8.79375L15.9374 9.94687V6.5625H14.0625V9.94687L10.6031 8.79375L10.0125 10.575L13.5375 11.7469L11.0906 15.4219Z" fill="#033537"/>
</svg>
