<svg width="19" height="20" viewBox="0 0 19 20" fill="none" xmlns="http://www.w3.org/2000/svg">
<path d="M13.9282 13.1499L13.6407 13.5206L13.9924 13.8312C14.0005 13.8383 14.0084 13.8457 14.0162 13.8534C14.0165 13.8537 14.0169 13.854 14.0172 13.8543L18.2578 18.0939C18.2578 18.0939 18.2578 18.0939 18.2578 18.0939C18.3043 18.1404 18.3411 18.1956 18.3663 18.2563C18.3914 18.317 18.4044 18.3821 18.4044 18.4479C18.4044 18.5136 18.3914 18.5787 18.3663 18.6394C18.3411 18.7001 18.3042 18.7553 18.2578 18.8018C18.2113 18.8483 18.1561 18.8852 18.0954 18.9103C18.0346 18.9355 17.9695 18.9484 17.9038 18.9484C17.8381 18.9484 17.773 18.9355 17.7123 18.9103C17.6515 18.8852 17.5964 18.8483 17.5499 18.8018C17.5499 18.8018 17.5499 18.8018 17.5499 18.8018L13.3119 14.5628L13.2728 14.5219L12.9608 14.1954L12.6044 14.4727C11.0975 15.6446 9.20053 16.1978 7.29996 16.0196C5.39938 15.8415 3.63827 14.9453 2.37551 13.5137C1.11274 12.0822 0.443355 10.223 0.50376 8.31504C0.564165 6.4071 1.34981 4.59398 2.70061 3.24517L2.70064 3.24514C4.05026 1.89726 5.8627 1.11416 7.76921 1.05517C9.67573 0.996171 11.5331 1.66571 12.9635 2.92756C14.3939 4.18942 15.2898 5.94881 15.469 7.8478C15.6482 9.74679 15.0973 11.6427 13.9282 13.1499ZM14.0293 6.05933C13.6961 5.26862 13.2096 4.55171 12.598 3.94994C11.3756 2.74735 9.72762 2.07648 8.0129 2.08346C6.29817 2.09045 4.65567 2.77471 3.44317 3.98722C2.23067 5.19972 1.5464 6.84222 1.53942 8.55694C1.53243 10.2717 2.2033 11.9197 3.40589 13.142C4.00766 13.7537 4.72458 14.2401 5.51529 14.5733C6.306 14.9065 7.15486 15.0799 8.0129 15.0834C8.87094 15.0869 9.72118 14.9204 10.5146 14.5937C11.308 14.2669 12.0288 13.7863 12.6356 13.1796C13.2423 12.5729 13.7229 11.852 14.0496 11.0586C14.3764 10.2652 14.5428 9.41498 14.5393 8.55694C14.5358 7.6989 14.3625 6.85005 14.0293 6.05933Z" fill="#828282" stroke="#ABAAAA"/>
</svg>
