<svg width="27" height="27" viewBox="0 0 27 27" fill="none" xmlns="http://www.w3.org/2000/svg">
<path d="M15.3886 1.9382L15.3885 1.9373C15.3582 1.63174 15.3396 1.45067 15.3171 1.31652C15.3026 1.23059 15.2913 1.19569 15.2881 1.18716C15.2492 1.11335 15.1852 1.05585 15.1076 1.02506C15.0987 1.02282 15.0632 1.01525 14.9784 1.00959C14.8426 1.00052 14.6608 1 14.3532 1H12.6468C12.3392 1 12.1574 1.00052 12.0213 1.00959C11.9346 1.01538 11.8989 1.02317 11.8901 1.02545C11.8141 1.0561 11.7512 1.11248 11.7125 1.18471C11.7092 1.19347 11.6976 1.22875 11.6829 1.31618C11.6604 1.45046 11.6418 1.6313 11.6115 1.93617L11.6115 1.93673L11.6094 1.95705C11.5565 2.48657 11.5112 2.94098 11.4467 3.29909C11.3831 3.65195 11.2788 4.05972 11.0174 4.40578L11.015 4.40887C10.7633 4.73943 10.4283 4.99732 10.0444 5.15626C9.66048 5.3152 9.24128 5.36949 8.82953 5.31362L8.82952 5.31362C8.39722 5.25495 8.03366 5.0392 7.73943 4.83473C7.44546 4.63045 7.09808 4.34665 6.69471 4.0171L6.66006 3.98879L6.65909 3.988C6.42167 3.79356 6.28054 3.67877 6.16966 3.59976C6.09866 3.54917 6.06593 3.5325 6.05765 3.52869C5.97788 3.50404 5.89189 3.50872 5.81522 3.54193C5.80724 3.54672 5.77697 3.56648 5.71388 3.62176C5.61118 3.71174 5.48269 3.83983 5.26471 4.05781L5.26431 4.0582L4.05781 5.26336C4.05768 5.26349 4.05754 5.26362 4.05741 5.26375C3.84107 5.48009 3.71276 5.60947 3.62315 5.71203C3.56474 5.77887 3.54473 5.81024 3.54009 5.8182C3.50837 5.89421 3.50446 5.97901 3.52911 6.05766C3.5329 6.0659 3.54941 6.09825 3.59944 6.16837C3.67849 6.27917 3.79299 6.41962 3.988 6.65774L3.98928 6.6593C4.00274 6.6758 4.01613 6.69221 4.02944 6.70853C4.35356 7.10585 4.63334 7.44881 4.83526 7.73921C5.03991 8.03355 5.2564 8.39779 5.31503 8.83134L5.31521 8.83269C5.37022 9.2437 5.3155 9.66195 5.15659 10.045C4.99788 10.4275 4.74087 10.7613 4.41162 11.0126L15.3886 1.9382ZM15.3886 1.9382L15.3925 1.97732C15.4445 2.49736 15.4893 2.94546 15.553 3.29943C15.6167 3.65315 15.7217 4.06247 15.9861 4.40992L15.9871 4.41124C16.2389 4.741 16.5736 4.9982 16.9571 5.1567L17.3391 4.23254L16.9571 5.1567C17.3401 5.31502 17.7581 5.36923 18.1688 5.31384C18.6018 5.25617 18.9661 5.04059 19.2605 4.83633C19.5583 4.62967 19.9101 4.34183 20.3187 4.00753L20.3405 3.98966L20.3423 3.98823C20.5794 3.79334 20.7205 3.67836 20.831 3.59948C20.9014 3.54918 20.9341 3.53252 20.9424 3.52868C21.0213 3.50432 21.1062 3.50862 21.1823 3.54085C21.1899 3.54525 21.221 3.56491 21.2876 3.62315C21.3896 3.71225 21.5184 3.84025 21.7341 4.05666L21.7353 4.05781L22.9422 5.26471C23.1595 5.48199 23.2875 5.61079 23.3773 5.71334C23.4349 5.77928 23.4547 5.81018 23.4593 5.81799C23.4914 5.89397 23.4957 5.97885 23.4713 6.05765C23.4675 6.06593 23.4508 6.09867 23.4002 6.16966C23.3212 6.28054 23.2064 6.42167 23.012 6.65909L23.0118 6.65933L22.9876 6.68892C22.6555 7.09459 22.3697 7.44379 22.1642 7.73949C21.959 8.03459 21.7435 8.39846 21.685 8.83134L21.6848 8.83269C21.6298 9.24369 21.6845 9.66194 21.8434 10.045C22.0023 10.428 22.2597 10.7621 22.5895 11.0135C22.9371 11.2787 23.3474 11.3836 23.7004 11.447C24.0545 11.5107 24.5029 11.5555 25.0232 11.6075L25.0633 11.6115L25.0638 11.6115C25.3687 11.6418 25.5495 11.6604 25.6838 11.6829C25.7705 11.6975 25.8059 11.709 25.8151 11.7124C25.8874 11.7516 25.9436 11.8151 25.9738 11.8917L25.9738 11.8917L25.9748 11.8941C25.9771 11.903 25.9846 11.9383 25.9903 12.0223C25.9995 12.1577 26 12.339 26 12.6468V14.3532C26 14.6608 25.9995 14.8426 25.9904 14.9784C25.9848 15.0632 25.9772 15.0987 25.9749 15.1076C25.9442 15.1852 25.8867 15.2492 25.8128 15.2881C25.8043 15.2913 25.7694 15.3026 25.6835 15.3171C25.5493 15.3396 25.3683 15.3582 25.0627 15.3885L25.0618 15.3886L25.0227 15.3925C24.5026 15.4445 24.0545 15.4893 23.7006 15.553C23.3468 15.6167 22.9375 15.7217 22.5901 15.9861L22.5888 15.9871C22.259 16.2389 22.0018 16.5736 21.8433 16.9571C21.6848 17.3405 21.6306 17.7591 21.6864 18.1703L21.6864 18.1705C21.745 18.6024 21.9605 18.9662 22.1651 19.2608C22.3718 19.5585 22.6595 19.9101 22.9939 20.3188L23.0117 20.3405L23.012 20.3409C23.207 20.579 23.3215 20.7195 23.4006 20.8303C23.4506 20.9004 23.4671 20.9327 23.4709 20.941C23.4957 21.0202 23.4916 21.1056 23.4593 21.182M15.3886 1.9382L23.4593 21.182M20.6348 24.4215C20.3904 24.3432 20.1623 24.1569 19.7073 23.7843L24.4228 20.6348C24.5223 20.946 24.5055 21.2827 24.3756 21.5824M20.6348 24.4215C20.946 24.5209 21.2827 24.5042 21.5824 24.3743C21.8187 24.273 22.0266 24.0651 22.4424 23.648L23.6493 22.4424M20.6348 24.4215L20.9399 23.4692C20.9412 23.4696 20.9422 23.47 20.943 23.4703M20.6348 24.4215L20.9391 23.469C20.9402 23.4693 20.9413 23.4696 20.9424 23.47M23.6493 22.4424C24.0651 22.0266 24.273 21.8187 24.3756 21.5824M23.6493 22.4424L22.9426 21.7349L22.9422 21.7353M23.6493 22.4424L22.9422 21.7353M24.3756 21.5824L23.458 21.1848C23.4585 21.1839 23.4589 21.1829 23.4593 21.182M24.3756 21.5824L23.4584 21.1841C23.4589 21.183 23.4593 21.1821 23.4596 21.1814M23.4593 21.182L23.4604 21.18C23.4604 21.1799 23.4602 21.1803 23.4596 21.1814M23.4593 21.182C23.4594 21.1818 23.4595 21.1816 23.4596 21.1814M23.4593 21.182L23.4596 21.1814M23.4593 21.182C23.4547 21.1898 23.435 21.2207 23.3773 21.2867C23.2875 21.3892 23.1595 21.518 22.9422 21.7353M23.4593 21.182L18.036 22.6773L18.167 21.6859C18.1675 21.686 18.1681 21.6861 18.1686 21.6861C18.602 21.7438 18.9662 21.9597 19.2602 22.1638C19.5544 22.3681 19.9019 22.652 20.3051 22.9814L20.3399 23.0099L20.3409 23.0106C20.5783 23.2051 20.7195 23.3199 20.8303 23.3989C20.9013 23.4495 20.9341 23.4662 20.9424 23.47M22.9422 21.7353L21.7357 22.9404L21.7341 22.942C21.517 23.1598 21.3886 23.2878 21.2867 23.3769C21.2234 23.4323 21.1932 23.4518 21.1853 23.4565M21.1853 23.4565L21.1848 23.4567C21.1081 23.4899 21.0221 23.4946 20.9424 23.47M21.1853 23.4565C21.1851 23.4566 21.185 23.4567 21.1849 23.4568L21.1849 23.4568C21.1856 23.4564 21.1866 23.4559 21.1879 23.4554L21.1853 23.4565ZM20.9424 23.47C20.9426 23.4701 20.9428 23.4702 20.943 23.4703M16.7819 23.1957L15.9874 22.5884L16.7819 23.1957ZM16.7819 23.1957L15.9871 22.5888C15.7216 22.9362 15.6166 23.3463 15.553 23.6996C15.4892 24.0538 15.4444 24.5025 15.3924 25.0235L15.3886 25.0619L15.3885 25.0627C15.3582 25.3683 15.3396 25.5493 15.3171 25.6835C15.3026 25.7696 15.2912 25.8044 15.2881 25.8129M16.7819 23.1957L16.3836 25.1613C16.3256 25.7472 16.2959 26.0402 16.1784 26.2683C16.0288 26.5588 15.7789 26.7852 15.4751 26.9055M15.4751 26.9055L15.1073 25.9756M15.4751 26.9055L15.107 25.9757C15.1071 25.9757 15.1072 25.9756 15.1073 25.9756M15.4751 26.9055C15.2361 27 14.9418 27 14.3532 27H12.6468C12.0582 27 11.7639 27 11.5263 26.9055C11.222 26.7855 10.9715 26.5591 10.8216 26.2683M15.1073 25.9756C15.1105 25.9743 15.1123 25.9738 15.1121 25.9739C15.112 25.974 15.1113 25.9742 15.1098 25.9746M15.1073 25.9756C15.1081 25.9752 15.109 25.9749 15.1098 25.9746M15.1098 25.9746C15.1865 25.9434 15.2497 25.8862 15.2881 25.8129M15.1098 25.9746C15.101 25.9769 15.0652 25.9846 14.9787 25.9904C14.8426 25.9995 14.6608 26 14.3532 26H12.6468C12.3392 26 12.1574 25.9995 12.0216 25.9904C11.9368 25.9847 11.9013 25.9772 11.8924 25.9749M15.2881 25.8129C15.2876 25.8144 15.2873 25.815 15.2872 25.815C15.2872 25.815 15.2879 25.8134 15.2893 25.8106M15.2881 25.8129C15.2885 25.8121 15.2889 25.8114 15.2893 25.8106M15.2893 25.8106L16.1766 26.2674L15.2893 25.8105C15.2893 25.8105 15.2893 25.8106 15.2893 25.8106ZM11.8924 25.9749C11.8148 25.9442 11.7508 25.8867 11.7119 25.8128M11.8924 25.9749C11.8908 25.9745 11.8901 25.9743 11.8901 25.9743C11.8901 25.9743 11.8912 25.9746 11.8931 25.9752C11.8937 25.9755 11.8945 25.9758 11.8954 25.9761L11.8931 25.9752C11.8929 25.9751 11.8927 25.975 11.8924 25.9749ZM10.8216 26.2683L11.7107 25.8106C11.7121 25.8134 11.7128 25.815 11.7128 25.815C11.7127 25.8151 11.7124 25.8144 11.7119 25.8128M10.8216 26.2683C10.7042 26.0402 10.6745 25.7472 10.6164 25.1613L4.41162 15.9874C4.74088 16.239 4.99776 16.5732 5.1562 16.9561C5.3145 17.3387 5.36892 17.7563 5.31396 18.1666C5.25645 18.6006 5.04074 18.9652 4.83592 19.2602C4.63042 19.5561 4.34447 19.9054 4.01252 20.311L3.9882 20.3407L3.988 20.3409C3.79356 20.5783 3.67877 20.7195 3.59976 20.8303C3.54917 20.9013 3.53249 20.9341 3.52869 20.9424C3.50434 21.0212 3.50861 21.106 3.54074 21.182C3.54529 21.1898 3.56504 21.2207 3.62274 21.2867C3.71245 21.3892 3.84053 21.518 4.05781 21.7353L5.26471 22.9422L5.26586 22.9433C5.48156 23.1597 5.61039 23.2878 5.71237 23.3769C5.779 23.4351 5.81007 23.4547 5.81774 23.4592C5.89376 23.4914 5.97873 23.4957 6.05761 23.4713C6.06594 23.4675 6.09856 23.4508 6.16903 23.4005C6.27954 23.3216 6.42062 23.2067 6.65772 23.0118L6.66005 23.0099L6.69493 22.9814C7.09811 22.652 7.44574 22.368 7.7402 22.1637C8.03488 21.9592 8.39936 21.7436 8.83319 21.6861C9.2436 21.6311 9.66127 21.6855 10.0439 21.8438C10.4269 22.0023 10.7612 22.2592 11.0128 22.5886L11.0139 22.5901C11.2783 22.9375 11.3833 23.3468 11.447 23.7006C11.5107 24.0545 11.5555 24.5026 11.6075 25.0226L11.6114 25.0618L11.6115 25.0627C11.6418 25.3683 11.6604 25.5493 11.6829 25.6835C11.6974 25.7694 11.7087 25.8043 11.7119 25.8128M10.8216 26.2683L11.7104 25.81C11.7109 25.8109 11.7114 25.8119 11.7119 25.8128M1.18493 15.2876C1.19406 15.291 1.22948 15.3025 1.31618 15.3171C1.45046 15.3396 1.6313 15.3582 1.93617 15.3885L1.93673 15.3886L1.97679 15.3926C2.49708 15.4445 2.94552 15.4893 3.29958 15.553C3.65286 15.6165 4.06362 15.7215 4.41136 15.9872L1.18493 15.2876ZM1.18493 15.2876C1.11264 15.2484 1.05638 15.1849 1.02617 15.1083L1.02618 15.1083L1.02525 15.1059C1.02295 15.097 1.01538 15.0617 1.0097 14.9777C1.00053 14.8423 1 14.661 1 14.3532V12.6468C1 12.3392 1.00052 12.1574 1.00959 12.0216C1.01525 11.9368 1.02282 11.9013 1.02506 11.8924C1.05585 11.8148 1.11335 11.7508 1.18716 11.7119C1.1957 11.7087 1.2306 11.6974 1.31652 11.6829C1.45067 11.6604 1.63174 11.6418 1.9373 11.6115L1.9382 11.6114L1.97907 11.6074C2.49832 11.5554 2.94615 11.5107 3.29984 11.447C3.65296 11.3835 4.0637 11.2785 4.41142 11.0128L1.18493 15.2876ZM20.943 23.4703C20.944 23.4706 20.9445 23.4709 20.9445 23.4709L20.943 23.4703ZM3.52818 6.05548C3.52821 6.0555 3.52845 6.05603 3.52882 6.05702L3.52818 6.05548ZM20.9446 3.52773C20.9446 3.52775 20.944 3.528 20.943 3.52838L20.9446 3.52773ZM21.1819 3.54065C21.1809 3.54014 21.1803 3.53983 21.1803 3.53981L21.1819 3.54065ZM25.9741 11.8916C25.9741 11.8916 25.9742 11.8921 25.9745 11.8931L25.9741 11.8916ZM23.4718 20.9432C23.4718 20.9431 23.4715 20.9426 23.4711 20.9415L23.4718 20.9432ZM23.4701 20.9384L23.4703 20.9391L23.4701 20.9384ZM1.18241 15.2866C1.18245 15.2866 1.18298 15.2868 1.18392 15.2872L1.18241 15.2866ZM1.18497 11.7128C1.18495 11.7128 1.18542 11.7125 1.18647 11.7121L1.18497 11.7128ZM1.02594 15.1084C1.02593 15.1084 1.02577 15.1079 1.02549 15.1069L1.02594 15.1084ZM5.8181 23.4594C5.81912 23.4599 5.81966 23.4602 5.81967 23.4602L5.8181 23.4594ZM6.0554 23.4723C6.05542 23.4722 6.05595 23.472 6.05694 23.4716L6.0554 23.4723ZM11.7134 1.18241C11.7134 1.18243 11.7132 1.18298 11.7128 1.18395L11.7134 1.18241ZM11.8895 1.02562C11.8885 1.02595 11.8879 1.0261 11.8879 1.02609L11.8895 1.02562ZM13.5 19.9C15.1974 19.9 16.8253 19.2257 18.0255 18.0255C19.2257 16.8253 19.9 15.1974 19.9 13.5C19.9 11.8026 19.2257 10.1747 18.0255 8.97452C16.8253 7.77428 15.1974 7.1 13.5 7.1C11.8026 7.1 10.1747 7.77428 8.97452 8.97452C7.77428 10.1747 7.1 11.8026 7.1 13.5C7.1 15.1974 7.77428 16.8253 8.97452 18.0255C10.1747 19.2257 11.8026 19.9 13.5 19.9Z" stroke="#033537" stroke-width="2"/>
</svg>
