<svg width="24" height="24" viewBox="0 0 24 24" fill="none" xmlns="http://www.w3.org/2000/svg">
<path d="M12.7574 23.5001H11.1627C10.5751 23.5042 10.0064 23.3001 9.56524 22.9268C9.12406 22.5535 8.84124 22.0371 8.77074 21.4761C8.23566 21.3135 7.7156 21.1083 7.21593 20.8627C6.75328 21.2145 6.17177 21.3895 5.5831 21.3541C4.99443 21.3187 4.44011 21.0755 4.0266 20.6711L2.94222 19.5901C2.52163 19.1925 2.26864 18.6595 2.23185 18.0934C2.19506 17.5274 2.37706 16.9683 2.74289 16.5234C2.4895 16.0553 2.27618 15.5681 2.10502 15.0667C1.52159 14.9989 0.98453 14.727 0.596294 14.3028C0.208057 13.8786 -0.00418231 13.3318 6.2461e-05 12.7667V11.2334C-0.00418231 10.6683 0.208057 10.1216 0.596294 9.69734C0.98453 9.27313 1.52159 9.00119 2.10502 8.9334C2.27413 8.41891 2.48749 7.91885 2.74289 7.4384C2.37706 6.99354 2.19506 6.43439 2.23185 5.86836C2.26864 5.30233 2.52163 4.76933 2.94222 4.37173L4.06647 3.32906C4.47997 2.92465 5.03429 2.68139 5.62296 2.64601C6.21163 2.61064 6.79314 2.78563 7.2558 3.1374C7.74263 2.89375 8.24928 2.68863 8.77074 2.52406C8.84124 1.96307 9.12406 1.44666 9.56524 1.07336C10.0064 0.700055 10.5751 0.495979 11.1627 0.50006H12.7574C13.3451 0.495979 13.9137 0.700055 14.3549 1.07336C14.7961 1.44666 15.0789 1.96307 15.1494 2.52406C15.6845 2.68666 16.2045 2.89182 16.7042 3.1374C17.1669 2.78563 17.7484 2.61064 18.337 2.64601C18.9257 2.68139 19.48 2.92465 19.8935 3.32906L20.9779 4.41006C21.3985 4.80767 21.6515 5.34067 21.6883 5.9067C21.7251 6.47272 21.5431 7.03187 21.1773 7.47673C21.4327 7.95718 21.646 8.45724 21.8151 8.97173C22.3917 9.03873 22.9233 9.30516 23.3106 9.72133C23.698 10.1375 23.9146 10.6749 23.9201 11.2334V12.7667C23.9243 13.3318 23.7121 13.8786 23.3238 14.3028C22.9356 14.727 22.3986 14.9989 21.8151 15.0667C21.646 15.5812 21.4327 16.0813 21.1773 16.5617C21.5431 17.0066 21.7251 17.5657 21.6883 18.1318C21.6515 18.6978 21.3985 19.2308 20.9779 19.6284L19.8537 20.6711C19.4402 21.0755 18.8858 21.3187 18.2972 21.3541C17.7085 21.3895 17.127 21.2145 16.6643 20.8627C16.1647 21.1083 15.6446 21.3135 15.1095 21.4761C15.0399 22.0305 14.7628 22.5417 14.33 22.9141C13.8972 23.2865 13.3382 23.4948 12.7574 23.5001ZM7.10431 19.1531C7.24774 19.1507 7.38888 19.1879 7.51095 19.2604C8.21592 19.6591 8.97543 19.961 9.7674 20.1574C9.94283 20.2009 10.0976 20.3005 10.2063 20.4398C10.315 20.5792 10.3711 20.75 10.3654 20.9241V21.2001C10.3654 21.4034 10.4494 21.5984 10.5989 21.7422C10.7485 21.886 10.9513 21.9667 11.1627 21.9667H12.7574C12.9689 21.9667 13.1717 21.886 13.3212 21.7422C13.4707 21.5984 13.5547 21.4034 13.5547 21.2001V20.9011C13.549 20.727 13.6051 20.5562 13.7138 20.4168C13.8225 20.2775 13.9773 20.1779 14.1527 20.1344C14.9447 19.938 15.7042 19.6361 16.4092 19.2374C16.5607 19.1516 16.7374 19.1164 16.9119 19.1372C17.0864 19.158 17.2488 19.2336 17.374 19.3524L17.5972 19.5671C17.6713 19.6389 17.7595 19.696 17.8567 19.7349C17.9539 19.7738 18.0581 19.7939 18.1633 19.7939C18.2686 19.7939 18.3728 19.7738 18.47 19.7349C18.5671 19.696 18.6553 19.6389 18.7294 19.5671L19.8537 18.4861C19.9284 18.4148 19.9877 18.33 20.0282 18.2366C20.0687 18.1432 20.0895 18.0429 20.0895 17.9417C20.0895 17.8405 20.0687 17.7403 20.0282 17.6469C19.9877 17.5535 19.9284 17.4687 19.8537 17.3974L19.6304 17.1827C19.5069 17.0624 19.4282 16.9062 19.4066 16.7385C19.385 16.5707 19.4216 16.4007 19.5108 16.2551C19.9255 15.5772 20.2395 14.8469 20.4437 14.0854C20.4889 13.9167 20.5925 13.7679 20.7374 13.6634C20.8823 13.5588 21.06 13.5049 21.241 13.5104H21.5281C21.7395 13.5104 21.9424 13.4296 22.0919 13.2859C22.2414 13.1421 22.3254 12.9471 22.3254 12.7437V11.2334C22.3254 11.0301 22.2414 10.8351 22.0919 10.6913C21.9424 10.5475 21.7395 10.4667 21.5281 10.4667H21.2171C21.0361 10.4722 20.8584 10.4183 20.7135 10.3138C20.5686 10.2093 20.465 10.0604 20.4198 9.89173C20.2156 9.13023 19.9016 8.39993 19.4869 7.72207C19.3977 7.57639 19.361 7.40645 19.3827 7.23868C19.4043 7.0709 19.483 6.91471 19.6065 6.7944L19.8298 6.57973C19.9045 6.50846 19.9638 6.42367 20.0043 6.33024C20.0448 6.23681 20.0656 6.13661 20.0656 6.0354C20.0656 5.93419 20.0448 5.83398 20.0043 5.74056C19.9638 5.64713 19.9045 5.56234 19.8298 5.49106L18.7294 4.41006C18.6553 4.3382 18.5671 4.28117 18.47 4.24225C18.3728 4.20332 18.2686 4.18328 18.1633 4.18328C18.0581 4.18328 17.9539 4.20332 17.8567 4.24225C17.7595 4.28117 17.6713 4.3382 17.5972 4.41006L17.374 4.62473C17.2488 4.7435 17.0864 4.81917 16.9119 4.83996C16.7374 4.86076 16.5607 4.82552 16.4092 4.73973C15.7042 4.34103 14.9447 4.0391 14.1527 3.84273C13.9773 3.79927 13.8225 3.69966 13.7138 3.56031C13.6051 3.42096 13.549 3.25017 13.5547 3.07606V2.80006C13.5547 2.59673 13.4707 2.40172 13.3212 2.25795C13.1717 2.11417 12.9689 2.03339 12.7574 2.03339H11.1627C10.9513 2.03339 10.7485 2.11417 10.5989 2.25795C10.4494 2.40172 10.3654 2.59673 10.3654 2.80006V3.09906C10.3711 3.27317 10.315 3.44396 10.2063 3.58331C10.0976 3.72266 9.94283 3.82227 9.7674 3.86573C8.97543 4.0621 8.21592 4.36403 7.51095 4.76273C7.35945 4.84852 7.18271 4.88376 7.00823 4.86296C6.83374 4.84217 6.6713 4.7665 6.54617 4.64773L6.32292 4.41006C6.2488 4.3382 6.16061 4.28117 6.06345 4.24225C5.96629 4.20332 5.86207 4.18328 5.75681 4.18328C5.65156 4.18328 5.54734 4.20332 5.45018 4.24225C5.35301 4.28117 5.26483 4.3382 5.19071 4.41006L4.06647 5.49106C3.99173 5.56234 3.93242 5.64713 3.89194 5.74056C3.85146 5.83398 3.83062 5.93419 3.83062 6.0354C3.83062 6.13661 3.85146 6.23681 3.89194 6.33024C3.93242 6.42367 3.99173 6.50846 4.06647 6.57973L4.28972 6.7944C4.41324 6.91471 4.49193 7.0709 4.51356 7.23868C4.53519 7.40645 4.49854 7.57639 4.40932 7.72207C3.99467 8.39993 3.68067 9.13023 3.47644 9.89173C3.43124 10.0604 3.32765 10.2093 3.18272 10.3138C3.03779 10.4183 2.86017 10.4722 2.6791 10.4667H2.39206C2.1806 10.4667 1.97779 10.5475 1.82826 10.6913C1.67874 10.8351 1.59473 11.0301 1.59473 11.2334V12.7667C1.59473 12.9701 1.67874 13.1651 1.82826 13.3089C1.97779 13.4526 2.1806 13.5334 2.39206 13.5334H2.70302C2.88409 13.5279 3.06171 13.5818 3.20664 13.6864C3.35157 13.7909 3.45516 13.9397 3.50036 14.1084C3.70459 14.8699 4.01859 15.6002 4.43324 16.2781C4.52246 16.4237 4.55911 16.5937 4.53748 16.7615C4.51585 16.9292 4.43716 17.0854 4.31364 17.2057L4.09039 17.4204C4.01565 17.4917 3.95634 17.5765 3.91586 17.6699C3.87538 17.7633 3.85454 17.8635 3.85454 17.9647C3.85454 18.066 3.87538 18.1662 3.91586 18.2596C3.95634 18.353 4.01565 18.4378 4.09039 18.5091L5.19071 19.5901C5.26483 19.6619 5.35301 19.719 5.45018 19.7579C5.54734 19.7968 5.65156 19.8169 5.75681 19.8169C5.86207 19.8169 5.96629 19.7968 6.06345 19.7579C6.16061 19.719 6.2488 19.6619 6.32292 19.5901L6.54617 19.3754C6.69469 19.2338 6.89514 19.1539 7.10431 19.1531Z" fill="#033537"/>
<path d="M11.96 16.9803C10.9292 16.9803 9.92281 16.6864 9.06805 16.1372C8.21344 15.5881 7.54971 14.8093 7.15841 13.9009C6.7672 12.9928 6.6651 11.9944 6.86432 11.0314C7.06357 10.0682 7.55578 9.18139 8.28123 8.48383C9.00685 7.78613 9.93314 7.30938 10.9437 7.11609C11.9544 6.92279 13.0018 7.02212 13.9529 7.40094C14.9039 7.77971 15.7143 8.42017 16.2834 9.23905C16.8523 10.0577 17.1549 11.0185 17.1549 12.0001C17.1549 13.3159 16.6114 14.5811 15.6388 15.5164C14.6656 16.4521 13.3426 16.9803 11.96 16.9803ZM11.96 7.78033C11.0984 7.78033 10.2549 8.02594 9.53625 8.48769C8.81741 8.94953 8.25478 9.60753 7.9219 10.3803C7.58894 11.1532 7.50156 12.0046 7.67152 12.8262C7.84146 13.6477 8.26051 14.4001 8.87317 14.9892C9.48566 15.5782 10.2642 15.9776 11.1096 16.1393C11.955 16.301 12.8314 16.2181 13.6286 15.9006C14.4259 15.5831 15.1098 15.0444 15.5921 14.3503C16.0746 13.656 16.3331 12.8381 16.3331 12.0001C16.3331 10.8759 15.8685 9.80106 15.0468 9.01097C14.2257 8.22138 13.115 7.78033 11.96 7.78033Z" fill="#65B741" stroke="#033537" stroke-width="0.772849"/>
</svg>
