<svg width="32" height="32" viewBox="0 0 32 32" fill="none" xmlns="http://www.w3.org/2000/svg">
<path d="M16.7099 22.29L15.2899 23.71L17.5899 26H15.9999C14.0224 25.9996 12.0894 25.4129 10.4453 24.314C8.80124 23.2152 7.51985 21.6536 6.76315 19.8266C6.00645 17.9996 5.80842 15.9892 6.19409 14.0497C6.57977 12.1102 7.53183 10.3285 8.92993 8.93001L7.50993 7.51001C5.82979 9.18828 4.68538 11.3273 4.22158 13.6563C3.75777 15.9853 3.99543 18.3996 4.90446 20.5935C5.81349 22.7874 7.35302 24.6622 9.32814 25.9807C11.3033 27.2991 13.6252 28.0019 15.9999 28H17.5899L15.2899 30.29L16.7099 31.71L19.9999 28.41C20.3724 28.0353 20.5815 27.5284 20.5815 27C20.5815 26.4716 20.3724 25.9647 19.9999 25.59L16.7099 22.29Z" fill="white"/>
<path d="M16 4.00004H14.41L16.71 1.71004L15.29 0.290039L12 3.59004C11.6275 3.96476 11.4185 4.47167 11.4185 5.00004C11.4185 5.52841 11.6275 6.03531 12 6.41004L15.29 9.71004L16.71 8.29004L14.41 6.00004H16C17.9775 6.00046 19.9105 6.58718 21.5546 7.68602C23.1987 8.78487 24.4801 10.3465 25.2368 12.1735C25.9935 14.0005 26.1916 16.0108 25.8059 17.9504C25.4202 19.8899 24.4681 21.6715 23.07 23.07L24.49 24.49C26.1702 22.8118 27.3146 20.6727 27.7784 18.3437C28.2422 16.0147 28.0045 13.6004 27.0955 11.4066C26.1865 9.21268 24.647 7.33784 22.6718 6.01939C20.6967 4.70094 18.3748 3.99817 16 4.00004Z" fill="white"/>
</svg>
