<svg width="28" height="28" viewBox="0 0 28 28" fill="none" xmlns="http://www.w3.org/2000/svg">
<path d="M7.25 27.5C5.38455 27.5 3.79318 26.6169 2.47591 24.8506C1.15864 23.0731 0.5 20.9075 0.5 18.3538C0.5 16.16 0.978637 14.2025 1.93591 12.4813C2.90136 10.76 4.16136 9.66312 5.71591 9.19062C6.23136 6.60312 7.25409 4.51062 8.78409 2.91312C10.3223 1.30437 12.0609 0.5 14 0.5C16.3973 0.5 18.4264 1.6475 20.0873 3.9425C21.7564 6.22625 22.5909 9.01625 22.5909 12.3125C24.0064 12.5375 25.1764 13.3813 26.1009 14.8438C27.0336 16.2837 27.5 17.9713 27.5 19.9062C27.5 22.0212 26.9641 23.8156 25.8923 25.2894C24.8205 26.7631 23.5155 27.5 21.9773 27.5H15.2273C14.5564 27.5 13.9795 27.1681 13.4968 26.5044C13.0141 25.8519 12.7727 25.0588 12.7727 24.125V15.4344L10.8091 18.05L9.09091 15.6875L14 8.9375L18.9091 15.6875L17.1909 18.05L15.2273 15.4344V24.125H21.9773C22.8364 24.125 23.5605 23.7144 24.1495 22.8931C24.7468 22.0831 25.0455 21.0875 25.0455 19.9062C25.0455 18.725 24.7468 17.7294 24.1495 16.9194C23.5605 16.0981 22.8364 15.6875 21.9773 15.6875H20.1364V12.3125C20.1364 9.98375 19.5391 7.9925 18.3445 6.33875C17.15 4.69625 15.7018 3.875 14 3.875C12.3064 3.875 10.8582 4.69625 9.65545 6.33875C8.46091 7.9925 7.86364 9.98375 7.86364 12.3125H7.25C6.06364 12.3125 5.05318 12.8919 4.21864 14.0506C3.37591 15.1981 2.95455 16.5875 2.95455 18.2188C2.95455 19.85 3.37591 21.2563 4.21864 22.4375C5.05318 23.5625 6.06364 24.125 7.25 24.125H10.3182V27.5" fill="#023336"/>
</svg>
